<svg width="244" height="28" viewBox="0 0 244 28" fill="none" xmlns="http://www.w3.org/2000/svg">
  <path d="M0 26.8V.4h21.28v6.12H8.16v4.28h10.48v5.68H8.16v4.2H21.8v6.12H0Zm49.12-7.84c-.48 1.947-1.293 3.533-2.44 4.76-1.12 1.227-2.493 2.12-4.12 2.68-1.6.533-3.373.8-5.32.8-2.72 0-5.08-.533-7.08-1.6-1.973-1.093-3.493-2.653-4.56-4.68-1.067-2.027-1.6-4.467-1.6-7.32s.533-5.293 1.6-7.32c1.067-2.027 2.587-3.573 4.56-4.64C32.16.547 34.507 0 37.2 0c1.92 0 3.68.267 5.28.8 1.627.533 3 1.36 4.12 2.48 1.12 1.12 1.88 2.573 2.28 4.36l-7.08 2.84c-.293-1.707-.813-2.84-1.56-3.4-.72-.56-1.653-.84-2.8-.84-1.067 0-1.987.28-2.76.84-.747.533-1.32 1.347-1.72 2.44-.373 1.067-.56 2.427-.56 4.08 0 1.627.173 2.987.52 4.08.373 1.093.933 1.92 1.68 2.48.773.533 1.773.8 3 .8 1.093 0 2.013-.32 2.76-.96.747-.64 1.24-1.64 1.48-3l7.28 1.96ZM64.388 0c2.747 0 5.093.547 7.04 1.64 1.973 1.067 3.48 2.613 4.52 4.64 1.067 2.027 1.6 4.467 1.6 7.32s-.533 5.293-1.6 7.32c-1.04 2.027-2.547 3.587-4.52 4.68-1.947 1.067-4.293 1.6-7.04 1.6-2.72 0-5.08-.533-7.08-1.6-1.973-1.093-3.493-2.653-4.56-4.68-1.067-2.027-1.6-4.467-1.6-7.32s.533-5.293 1.6-7.32c1.067-2.027 2.587-3.573 4.56-4.64C59.308.547 61.668 0 64.388 0Zm0 6.24c-1.093 0-2 .28-2.72.84-.693.533-1.227 1.333-1.6 2.4-.347 1.067-.52 2.44-.52 4.12 0 1.653.173 3.027.52 4.12.373 1.067.907 1.88 1.6 2.44.72.533 1.627.8 2.72.8 1.067 0 1.96-.267 2.68-.8.72-.56 1.253-1.373 1.6-2.44.347-1.093.52-2.467.52-4.12 0-1.68-.173-3.053-.52-4.12-.347-1.067-.88-1.867-1.6-2.4-.72-.56-1.613-.84-2.68-.84Zm32.936 6.6v6.32h-15.16v-6.32h15.16ZM127.932.4l-12.68 15.88-.4-1.56-6.04 7.8-1.76-6.04L119.092.4h8.84Zm-16.92 0v26.4h-8.16V.4h8.16Zm7.16 8.36 10.4 18.04h-9.24l-7.2-13.52 6.04-4.52ZM155.974.4v26.4h-8.96l-7.2-13.08-1.68-3.56h-.08l.16 5.2V26.8h-7.12V.4h8.92l7.2 13.08 1.72 3.56h.04l-.16-5.2V.4h7.16ZM173.099 0c2.747 0 5.093.547 7.04 1.64 1.973 1.067 3.48 2.613 4.52 4.64 1.067 2.027 1.6 4.467 1.6 7.32s-.533 5.293-1.6 7.32c-1.04 2.027-2.547 3.587-4.52 4.68-1.947 1.067-4.293 1.6-7.04 1.6-2.72 0-5.08-.533-7.08-1.6-1.973-1.093-3.493-2.653-4.56-4.68-1.067-2.027-1.6-4.467-1.6-7.32s.533-5.293 1.6-7.32c1.067-2.027 2.587-3.573 4.56-4.64 2-1.093 4.36-1.64 7.08-1.64Zm0 6.24c-1.093 0-2 .28-2.72.84-.693.533-1.227 1.333-1.6 2.4-.347 1.067-.52 2.44-.52 4.12 0 1.653.173 3.027.52 4.12.373 1.067.907 1.88 1.6 2.44.72.533 1.627.8 2.72.8 1.067 0 1.96-.267 2.68-.8.72-.56 1.253-1.373 1.6-2.44.347-1.093.52-2.467.52-4.12 0-1.68-.173-3.053-.52-4.12-.347-1.067-.88-1.867-1.6-2.4-.72-.56-1.613-.84-2.68-.84Zm41.216 12.72c-.48 1.947-1.293 3.533-2.44 4.76-1.12 1.227-2.493 2.12-4.12 2.68-1.6.533-3.373.8-5.32.8-2.72 0-5.08-.533-7.08-1.6-1.973-1.093-3.493-2.653-4.56-4.68-1.067-2.027-1.6-4.467-1.6-7.32s.533-5.293 1.6-7.32c1.067-2.027 2.587-3.573 4.56-4.64 2-1.093 4.347-1.64 7.04-1.64 1.92 0 3.68.267 5.28.8 1.627.533 3 1.36 4.12 2.48 1.12 1.12 1.88 2.573 2.28 4.36l-7.08 2.84c-.293-1.707-.813-2.84-1.56-3.4-.72-.56-1.653-.84-2.8-.84-1.067 0-1.987.28-2.76.84-.747.533-1.32 1.347-1.72 2.44-.373 1.067-.56 2.427-.56 4.08 0 1.627.173 2.987.52 4.08.373 1.093.933 1.92 1.68 2.48.773.533 1.773.8 3 .8 1.093 0 2.013-.32 2.76-.96.747-.64 1.24-1.64 1.48-3l7.28 1.96ZM242.424.4l-12.68 15.88-.4-1.56-6.04 7.8-1.76-6.04L233.584.4h8.84Zm-16.92 0v26.4h-8.16V.4h8.16Zm7.16 8.36 10.4 18.04h-9.24l-7.2-13.52 6.04-4.52Z" fill="#384460"/>
</svg>
